/* XPM */
static char *_638792427381[] = {
/* columns rows colors chars-per-pixel */
"64 64 2 1 ",
"  c yellow",
". c None",
/* pixels */
"....................                        ....................",
"....................                        ....................",
"....................                        ....................",
"....................                        ....................",
"...................                          ...................",
"..........                                            ..........",
"..........                                            ..........",
"..........                                            ..........",
"..........                                            ..........",
".........                                              .........",
".....                                                      .....",
".....                                                      .....",
".....                                                      .....",
".....                                                      .....",
".....                                                      .....",
".....                                                      .....",
".....                                                      .....",
".....                                                      .....",
".....                                                      .....",
"......                                                      ....",
"...............                                                 ",
"...............                                                 ",
"...............                                                 ",
"...............                                                 ",
"................                                                ",
".............................                                   ",
"..............................                                  ",
"..............................                                  ",
"..............................                                  ",
"...............................                                 ",
"............................................                    ",
"............................................                    ",
"............................................                    ",
"............................................                    ",
"...............................                                 ",
"..............................                                  ",
"..............................                                  ",
"..............................                                  ",
".............................                                   ",
"................                                                ",
"...............                                                 ",
"...............                                                 ",
"...............                                                 ",
"...............                                                 ",
"......                                                      ....",
".....                                                      .....",
".....                                                      .....",
".....                                                      .....",
".....                                                      .....",
".....                                                      .....",
".....                                                      .....",
".....                                                      .....",
".....                                                      .....",
".....                                                      .....",
".........                                              .........",
"..........                                            ..........",
"..........                                            ..........",
"..........                                            ..........",
"..........                                            ..........",
"...................                          ...................",
"....................                        ....................",
"....................                        ....................",
"....................                        ....................",
"....................                        ...................."
};
