/* XPM */
static char *image_5[] = {
/* columns rows colors chars-per-pixel */
"24 40 104 2 ",
"   c None",
".  c #FF8905",
"X  c #FF8E0B",
"o  c #FF9105",
"O  c #FF9807",
"+  c #FF930C",
"@  c #FF9C0C",
"#  c #FF8E15",
"$  c #FF9511",
"%  c #FF9B14",
"&  c #FF9519",
"*  c #FF9F1D",
"=  c #FFA30D",
"-  c #FFA90C",
";  c #FEA213",
":  c #FEAB15",
">  c #FFA11D",
",  c #FDAD1A",
"<  c #FFB115",
"1  c #FDB31B",
"2  c #FCB91F",
"3  c #FF962A",
"4  c #FF9D2A",
"5  c #FFAD20",
"6  c #FFAA2C",
"7  c #FFB122",
"8  c #FDBB22",
"9  c #FFB32C",
"0  c #FEBD29",
"q  c #FFAC30",
"w  c #FFBB37",
"e  c #FEC125",
"r  c #FEC42C",
"t  c #FDCA2E",
"y  c #FFC634",
"u  c #FDCC31",
"i  c #FFC738",
"p  c #FDCE3B",
"a  c #FDD136",
"s  c #FED53A",
"d  c #FED93E",
"f  c #FFB347",
"g  c #FFBD7A",
"h  c #FEC647",
"j  c #FDCF40",
"k  c #FED545",
"l  c #FEDD42",
"z  c #FFD449",
"x  c #FFDB4E",
"c  c #FFCA54",
"v  c #FFCE58",
"b  c #FDD550",
"n  c #FFDC50",
"m  c #FEDE59",
"M  c #FEE145",
"N  c #FFE54A",
"B  c #FFEB4E",
"V  c #FFE154",
"C  c #FFEE52",
"Z  c #FFE95B",
"A  c #FFF054",
"S  c #FFF15A",
"D  c #FECC61",
"F  c #FED862",
"G  c #FFCC7C",
"H  c #FEDB71",
"J  c #FFF464",
"K  c #FFF867",
"L  c #FFF46A",
"P  c #FFF96B",
"I  c #FFF374",
"U  c #FFCF83",
"Y  c #FFCF89",
"T  c #FFD687",
"R  c #FFDC8B",
"E  c #FFD496",
"W  c #FEE286",
"Q  c #FFF483",
"!  c #FFF28F",
"~  c #FEE59D",
"^  c #FFF693",
"/  c #FFF698",
"(  c #FFDAA6",
")  c #FFDEB2",
"_  c #FFDCB9",
"`  c #FEE7A0",
"'  c #FEE9A3",
"]  c #FEECAB",
"[  c #FFF3AF",
"{  c #FFF9AD",
"}  c #FFE1B5",
"|  c #FEEEBB",
" . c #FFE5C1",
".. c #FFEAC2",
"X. c #FFE7CE",
"o. c #FFEBCB",
"O. c #FFF6C1",
"+. c #FFEBD0",
"@. c #FFFBD3",
"#. c #FFF2D9",
"$. c #FFF3E5",
"%. c #FFF8EC",
"&. c #FFFCF5",
"*. c #FFFFFF",
/* pixels */
"        Q I I x 0 ; ; % = ; = ; > > ; @         ",
"      / ^ ^ v 5 : r a s d a z R ) ) ( G f       ",
"    ^ ^ ! v ; 0 M C C C C S { &.*.*.*.&.+.U     ",
"  S J J x > 0 B B l s a k ' &.*.*.*.*.*.*.%.E   ",
"A A C C 8 1 N N a t t j ~ &.*.*.*.*.*.*.*.*.$.Y ",
"A A C M : y B a t t p ` &.*.*.*.*.*.*.*.*.*.&.o.",
"C A A l : l l u t k ` &.*.*.*.*.*.*.*.*.*.*.*.&.",
"A A A k : l l t j ' &.*.*.*.*.*.*.*.*.*.*.*.*.*.",
"A C A d , M d p ' &.&.+.} } ) ) ) X.&.*.*.*.*.*.",
"B B B a : M x ' &.%.T q > ; ; > % 4 g $.*.*.*.*.",
"a a a r > V [ &.&.T : - - - - - = O X g &.*.*.*.",
"u t u 8 , ] &.*.#.w = = = = = = - @ X 3 X.*.*.@.",
"t u u 8 6 +.*.*...5 O + % 1 8 8 e 8 @ # _ *.O.L ",
"u u u 8 6 +.*.*...> X % r t a l M l 8 # ) | m C ",
"F m F h q +.*.*. .> . , t t u a l M p & G z s C ",
"W R R D q +.*.*. .> . , u u u u d M p $ i a s C ",
"H H H c q +.*.*.} * . 1 t u u u u d a $ u u d C ",
"p p p 0 6 +.*.*. .4 . 1 u u t t t d u $ y a s C ",
"t t u 8 6 +.*.*. .4 . 7 u t u u u u u % y a s C ",
"t t u 8 6 +.*.*.| > . 1 u u t u u u y $ y u s S ",
"u u u e 6 +.*.*. .* . > t t u u u u 0 $ i u l K ",
"s s s t 6 +.*.*. .* . ; t u u t u u 0 $ u d C P ",
"l l l t 6 +.*.*. .* . ; e u t u u u 0 + p C C P ",
"d l l u 6 +.*.*. .* . ; 2 t u t t u 0 + k C Z P ",
"d l l t 6 X.*.*. .> . ; 1 e t t u u 0 + k A Z P ",
"a u a e 6 +.*.*. .> . ; 1 8 r t y u 0 $ z A S P ",
"t u u 8 6 +.*.*.~ % . @ 1 1 8 t t u 0 $ z C A P ",
"u t t 8 6 +.&.] x = o X : 1 1 8 r r ; X k A S P ",
"u u u 8 6 o.] k s < = O @ = = = : - O X z A A P ",
"t t t 8 6 W x t d e - - = - = - - = X * Z C S P ",
"8 8 8 1 : M d a M d < = = = = = @ + + z J B S P ",
"8 2 8 1 ; M d t d B l r 7 7 7 5 5 9 z K S C A J ",
"2 2 8 1 : l k u u l S P J J J J J K P S A B B A ",
"8 2 2 1 ; l M u u d A J J J J J J J Z C B M M B ",
"2 8 2 2 ; u B p d B B B B A B C C B B B M d N l ",
"2 2 2 2 ; 1 M C B B B B B B B B B C B M a N B t ",
"  1 1 1 : @ r J P S S A S S A S C C C l N B u   ",
"    1 : 1 ; ; r Z P P P P P P P P J A C M y     ",
"      1 : 1 = @ 1 i k n x x x x z l a r 1       ",
"        1 : 1 : ; @ @ ; ; @ ; ; = ; % @         "
};
