/* XPM */
static char *image_7[] = {
/* columns rows colors chars-per-pixel */
"18 40 87 1 ",
"  c None",
". c #FF8E06",
"X c #FF8F0B",
"o c #FF930C",
"O c #FF9D0D",
"+ c #FF8E16",
"@ c #FF9511",
"# c #FF9812",
"$ c #FF931C",
"% c #FFA20D",
"& c #FFA90C",
"* c #FEA513",
"= c #FEA915",
"- c #FFA51B",
"; c #FDAD18",
": c #FFB012",
"> c #FDB21C",
", c #FCB91F",
"< c #FFA125",
"1 c #FFA925",
"2 c #FFA929",
"3 c #FFB423",
"4 c #FDBB22",
"5 c #FEB22F",
"6 c #FEBC2A",
"7 c #FEB532",
"8 c #FFBA34",
"9 c #FEBB39",
"0 c #FEC026",
"q c #FEC32C",
"w c #FDCA2F",
"e c #FDCC31",
"r c #FECD3A",
"t c #FDD136",
"y c #FED43A",
"u c #FEDA3E",
"i c #FFBA42",
"p c #FFBB4E",
"a c #FFBA59",
"s c #FFC449",
"d c #FEC84B",
"f c #FEDD42",
"g c #FED14C",
"h c #FECA56",
"j c #FFCF5B",
"k c #FED65F",
"l c #FEE145",
"z c #FEE549",
"x c #FFEA4E",
"c c #FFEE51",
"v c #FFE95A",
"b c #FFF053",
"n c #FECE66",
"m c #FFC06D",
"M c #FED862",
"N c #FEDB6C",
"B c #FEDC71",
"V c #FEE66F",
"C c #FFEC69",
"Z c #FFF263",
"A c #FFEA75",
"S c #FFE57B",
"D c #FFF373",
"F c #FFC58B",
"G c #FFCA8C",
"H c #FEDE81",
"J c #FFD08D",
"K c #FFD997",
"L c #FFDA9D",
"P c #FEE086",
"I c #FFEE81",
"U c #FFEF8C",
"Y c #FFF485",
"T c #FFF694",
"R c #FFF598",
"E c #FFDDAB",
"W c #FFE1B5",
"Q c #FFE2BC",
"! c #FFE2C4",
"~ c #FFEBC4",
"^ c #FFECCC",
"/ c #FFEBD0",
"( c #FFF7D4",
") c #FFF7DB",
"_ c #FFF9DE",
"` c #FFFEEC",
"' c #FFFFFF",
/* pixels */
"   YDDDDCr;%O*#   ",
"  TTRRTUs=1eyyeq  ",
" STTTTTj*qxbcccxl ",
"qvZZZZv33zfyyyyfc ",
"qcbbcbf=tfeeweweuc",
"qcbbbbf;utwwewewez",
"qcbcbbf-yeeetyerel",
"6cbbbcf=yetzxccftl",
"qcbbbbf;ytlxfyfcuu",
"6xxcxxy;ryzw&o#rzV",
">ettttq=yyy:&%.#S_",
">weeww6;yye%&&o$Q'",
">eeeee0=ytqo=61$!'",
";eeree6;yy6oqtf7!'",
"8MMMMMd-yy6@qtuq!'",
"iHHHHPn-yt6@qwt9!'",
"9BBNBBh-yy8#wee8!'",
">ertrr6;yNm#qee8!'",
";weeew4;V_F#qew8!'",
"1wweee41~'Fowew5!'",
">eeeee02/'F@www5!'",
"4yuyuuw2/'F@qww5!'",
"4fffffe2/'Foqww7!'",
"4uffffe2/'Fo0ew2!'",
"3ufuffw2/'Fo6ww6!'",
">eeeee02/'Fo,ww5!'",
">eewee42/'Fo,ww5!'",
">eweee02^'Go*,6<!`",
",wewww42/'Go%=O+LI",
";wwwww42/'K=&&.$gl",
"=,0,44>2^'^7%OX-fl",
"=,,4,,>2^''Wa13fll",
"=,,,,,;2/'''(Vccuf",
"=,,,0,;3/'')Azltel",
";,,,,,>1^')Neeeeez",
"=,,4,,>*E_Nweeeeuc",
"=:>>>>;%pSlyttufx ",
" ;:;;;;&%qxccccxl ",
"  ;;;;;;*O3eyyt0  ",
"   >;;;,;*%#%%O   "
};
