/* XPM */
static char *image_3[] = {
/* columns rows colors chars-per-pixel */
"31 40 98 2 ",
"   c None",
".  c #FF940A",
"X  c #FF9C0C",
"o  c #FF9F11",
"O  c #FFA30C",
"+  c #FFAA0C",
"@  c #FFA213",
"#  c #FDAA15",
"$  c #FFA419",
"%  c #FFAD1B",
"&  c #FDB41C",
"*  c #FCB91F",
"=  c #FFAB23",
"-  c #FFAE28",
";  c #FFB322",
":  c #FEBB24",
">  c #FFB12C",
",  c #FFBB2A",
"<  c #FFAF30",
"1  c #FFB435",
"2  c #FFB930",
"3  c #FFB43D",
"4  c #FFBB3D",
"5  c #FCC026",
"6  c #FEC42C",
"7  c #FDC92F",
"8  c #FFC532",
"9  c #FDCC31",
"0  c #FFC739",
"q  c #FFCA3A",
"w  c #FDD236",
"e  c #FED43A",
"r  c #FED93D",
"t  c #FFBA4A",
"y  c #FECD42",
"u  c #FFC54C",
"i  c #FED345",
"p  c #FEDD42",
"a  c #FED64B",
"s  c #FFDC4E",
"d  c #FFC057",
"f  c #FFCB56",
"g  c #FFCA5E",
"h  c #FFD751",
"j  c #FFDE50",
"k  c #FDD55A",
"l  c #FFD95C",
"z  c #FEE245",
"x  c #FFE449",
"c  c #FFEB4E",
"v  c #FFE355",
"b  c #FFED52",
"n  c #FFE659",
"m  c #FFEB5C",
"M  c #FFF155",
"N  c #FFF35D",
"B  c #FFC963",
"V  c #FFCB6D",
"C  c #FFD665",
"Z  c #FEDA63",
"A  c #FED769",
"S  c #FFD96C",
"D  c #FFCE72",
"F  c #FEDD73",
"G  c #FEDC7C",
"H  c #FFEF61",
"J  c #FFE46E",
"K  c #FFF464",
"L  c #FFF768",
"P  c #FFF868",
"I  c #FEE274",
"U  c #FFED76",
"Y  c #FFE37A",
"T  c #FFEB7E",
"R  c #FFF175",
"E  c #FFD580",
"W  c #FFDC8D",
"Q  c #FFDE92",
"!  c #FEE184",
"~  c #FEEE83",
"^  c #FEE689",
"/  c #FFED8D",
"(  c #FFF186",
")  c #FFF48B",
"_  c #FEEE90",
"`  c #FFE29A",
"'  c #FFF394",
"]  c #FFF598",
"[  c #FEE9A6",
"{  c #FEEBAB",
"}  c #FFEDB1",
"|  c #FFF4B4",
" . c #FFF8B6",
".. c #FFF3BD",
"X. c #FEEFC0",
"o. c #FEF3C3",
"O. c #FFF6C8",
"+. c #FFFACB",
/* pixels */
"          J q & $ $ o o $ o o $ o o $ o $ o @ o . .           ",
"        S 1 - t D W W W Q Q W Q Q Q Q Q W F a e 7 : @         ",
"    ) C - 3 W ..+.+.+.+.+.+.+.+.+.+.+.+. .U b M b c q %       ",
"    j - t { +.O.o.o.o.o.o.X.O.X.O.X.o.{ n w w w r z c z :     ",
"  c : 3 [ O.o.X.X.X.X.X.X.X.X...X.X.[ k 7 7 7 7 9 9 p K v =   ",
"M r % E +.o.X.X.X.X.X.X.X.X.X.o.X.[ k 7 9 9 7 9 7 w p b L q @ ",
"M 7 3 } O.X.X.X.X.X.X.X.X.o.o.o.} Z e w w w 7 9 w z c b K n & ",
"b : t o.o.X.X.X.X.O.+.+.+.+.+. .U b b M b c z w z c c b b K , ",
"c : V O.X.X.X.o.O.O.[ Q W Q W Z e e e e i p b N M c c c M K 8 ",
"x ; V o.X.X.X.O...D 1 $ @ @ @ O @ @ @ O O % 2 H P b b c b K 0 ",
"9 % V O.o.X.o.o.V @ O + O + + O + + + + O O X 2 K N b c b K 8 ",
"7 # V O.X...O.` % + + + O O O O O O O O O + O X y P b c b L 0 ",
"7 % V O...X.O.V + + O . @ & & : : , : : : & + X > K M c b K 8 ",
"6 % V O.o.X.O.B + + . @ : 7 9 9 w r z z z r * . = K M c b N 8 ",
"k - V o.X.o.o.B + O . = 9 9 7 7 7 w r p p z 9 X = m b b c v 6 ",
"G 1 V O.X.X.O.B + O . : 9 9 9 9 7 9 9 r z z e @ = H b x r x 6 ",
"A - V O.o.o. .u + O . : 9 9 9 9 9 9 9 w r z w O = K c e w x 6 ",
"0 % V O.X.{ U 8 + O . : 9 9 7 9 9 7 7 7 w p w O = m r 9 w x 6 ",
"7 # V O.[ C x 6 + O . : 9 9 9 7 7 9 7 9 7 r w @ $ v w 7 w x 6 ",
"7 % D | Z w x 6 + X X * 9 9 9 7 9 9 7 9 7 q 9 o $ x w 9 9 x , ",
"7 % g J 9 9 x 6 + O . & 7 7 9 9 9 7 9 9 7 9 6 O % x w 9 w x 6 ",
"w % 0 x 9 9 x 7 + O . # 6 7 7 9 9 9 7 9 7 w 6 X $ x w 9 9 x 6 ",
"r % 6 x 9 w c 5 + O . # 5 7 7 7 7 7 9 9 7 w 5 X $ x w 9 q z 6 ",
"e & 7 x 9 9 x 5 + X . # * 5 7 7 9 9 9 7 7 7 6 O $ x w 7 9 x 8 ",
"e ; 7 z 9 9 x 8 + O . # & * 5 7 9 9 9 7 7 7 6 X $ x w 9 w n 0 ",
"7 % 8 x 9 e m 0 + O . @ * & * 5 7 7 9 7 9 7 6 O $ x w 9 a T u ",
"7 # 9 x w z K q + O . @ * * & * 5 9 7 7 7 9 * X $ x w i F / u ",
"6 % 6 x z c K q + + X . @ & & & * : 6 7 7 : # X = c a S ! _ u ",
"6 # 9 M c M K i O + + O X X O O O O @ # # # O . , m I ! ! _ u ",
"6 % q K c c N m ; + + + + + O O O O O + + O X X h ~ ! ^ ! _ u ",
": @ e K b c M P s % O O O O O O O O O O O X o y ( ^ ! E ! _ u ",
"* # q K b b c N L v 8 ; % & % & % & % & % , h ( _ ! Y W ^ _ u ",
"* # 8 K b c b b N P L b x c c x c x c c c m ( / ! ! ! ! ^ / 4 ",
"* # = m N b c c b c z x x x c x x c x x m T ^ ! ! ! ! ! / Y - ",
"* * @ i L b c b c e 9 w 7 w 7 7 9 9 9 i S ! E ! ! ! ! ^ ' f @ ",
"  * @ ; m L M x w 7 7 7 7 7 7 7 7 9 y S ! ! ^ ! ! ! ^ ' F -   ",
"    # O , m K c r w e e w w w e e a I ^ ^ ^ ^ ^ ^ ) ] Y 1     ",
"    % # o : p c b b b b M b c M m ( ] ] ] ] ] ] ' / C >       ",
"        # @ @ ; 9 e e e e e e r l S S S A S A C f 1 @         ",
"          # @ O X o @ X $ o O @ o $ o @ o $ @ $ X X           "
};
