/* XPM */
static char *image_1[] = {
/* columns rows colors chars-per-pixel */
"40 40 79 1 ",
"  c None",
". c #FF9A07",
"X c #FF9E0D",
"o c #FF9F12",
"O c #FFA30C",
"+ c #FFAA0C",
"@ c #FFA313",
"# c #FDAD16",
"$ c #FFA31A",
"% c #FFAD1A",
"& c #FDB41C",
"* c #FCB91E",
"= c #FFA626",
"- c #FFAF21",
"; c #FFAD2B",
": c #FFB220",
"> c #FEBC25",
", c #FFB02B",
"< c #FFBE29",
"1 c #FDC127",
"2 c #FDC52B",
"3 c #FDCA2F",
"4 c #FFC531",
"5 c #FDCB31",
"6 c #FDCE3A",
"7 c #FDD236",
"8 c #FED53B",
"9 c #FEDA3E",
"0 c #FFBF62",
"q c #FED543",
"w c #FEDD42",
"e c #FDD34A",
"r c #FFDD4F",
"t c #FED453",
"y c #FFDB52",
"u c #FED65C",
"i c #FFD95C",
"p c #FEE144",
"a c #FEE54A",
"s c #FFEB4E",
"d c #FFE753",
"f c #FFEE53",
"g c #FFE05F",
"h c #FFEF5A",
"j c #FFF054",
"k c #FFF35D",
"l c #FFC46F",
"z c #FED965",
"x c #FFDA6C",
"c c #FFDB74",
"v c #FEE06E",
"b c #FFF464",
"n c #FFFA6C",
"m c #FFEC74",
"M c #FFED7A",
"N c #FFF37C",
"B c #FEDF82",
"V c #FFD394",
"C c #FFDD90",
"Z c #FFD69B",
"A c #FEE285",
"S c #FEE588",
"D c #FFEF8C",
"F c #FFF281",
"G c #FFEF90",
"H c #FFF193",
"J c #FFF598",
"K c #FFDEAE",
"L c #FFE0B4",
"P c #FEEDB4",
"I c #FEEEBB",
"U c #FFF8BD",
"Y c #FEEFC0",
"T c #FFEACB",
"R c #FFF1C5",
"E c #FFF2CB",
"W c #FFFBDA",
"Q c #FFFBF5",
"! c #FFFFFF",
/* pixels */
"       .Xoo$oo@OXOXXOoXOoXOXooXXX       ",
"     X;0VKLLLZq88qq89qyrryrrrreq<@X     ",
"   .olTQ!!!!WNjfjsjfknnnnnnnnnnnkw<@.   ",
"  .=KQ!!!!!Ez877787pfhjjhhfjhjhaaff5@X  ",
"  $ZQ!!!!!Eu3333359afssfssssssw559sf5o  ",
" XlQ!!!!!Et3535359asfsssffsssw53557sf<X ",
" ;T!!!!!Rt557788pfhhjjjjjjjfw5555359fw@ ",
".0Q!!!!Ie5wasffknnnnnnnnnnnkp7555355af>X",
"XV!!!!Ie7pjsw9qryrdederyryrajs9555359j5X",
"oK!!!Pe7ah9:@O@OOoOOO@OOOOO%5sf935558j8X",
"oL!!Pe5pf7@OO++++++++++++++OO>ss75557kto",
"oL!Pe38fw@O++OOXXOOXOXOOOOO+OX2fp553qFx@",
"oLUe33pf1O++O@&&&&>>>><>>&OO+O%aa556xJxo",
"ocb755ps%O+O%23535589pppww2@++@wf76xSJxo",
"o8f755as%+O@1555555579ppwpw&O+X8swzASJxo",
"oqf835ah:O+@25555555558wppw>O+O8kxBASJxo",
"@8j735db&OO#355555353557wwp>O+OeFSBBSJxo",
"X8f75wbb%+O@2535553555557wp>O+OzJSABSJxo",
"O8f79sbb:O+@33533555535558w1X+@xJSBBSJxX",
"o8fpsfbb-+O@235355355353558>O+@xJSABSJxo",
"X8khsfbb:O+O133353535555555:O+OxJSAASJz@",
"Xrnfsfbb-OOO*13355533535555&X+@xJSBBSFqX",
"Ornhsfbb&+O@&*2355355555555&X+oxJSBBvh8o",
"Xrnfsfbb-OOO&*>235555335553&O+@xJSBz9s8X",
"ornhsfbb-OOO&&#*23335533535&X+oxJSz67s8@",
"Xrnfssbb&O+O&&*&*1333533555&O+@xJx637f8X",
"@rnhsfbb-O+X#******33533352@O+@xN8357j8O",
"Xrnhssbk>O+OX##*#&&*>23321%O++$ih7558s9X",
"Ornjfsaj5X++OO@OOO@OOO@@@OO++O:sa5557f8X",
"Xrnjs97sa:O+++OOOOOOOO+O+O++O@9j93557h8X",
"oenh9779fp:XOO+O+O+OO++OOOOO@7fp73538j8o",
"Xqns5355pfa5&&%%%,,,,,;,,,,4pja853539j5X",
".<ba55335wsjfsshMDDDDDDDGDmhfp753355af>.",
" $ps95555579ppdMGGHGGHGJGmaw85555559fw@ ",
" X1fs755553556zAABAAABAcu6553535338af<X ",
"  @5fs9535536zABABBBBABz5555555359sj5@  ",
"  X@5ffa988qxSSSSSSSSAz88787788wajf5@X  ",
"   .o<wfjfhFJJJJJJJJJNkffhffsffjsw>@.   ",
"     X@>58txxxxxxxxxiw8q88889885>@X     ",
"       .XXooooX@ooooXXOXXX@XXXXXX       "
};
