/* XPM */
static char *image_11[] = {
/* columns rows colors chars-per-pixel */
"18 40 66 1 ",
"  c None",
". c #FF8E06",
"X c #FF8E0C",
"o c #FF940B",
"O c #FF9D0D",
"+ c #FF9711",
"@ c #FF9A12",
"# c #FF9B1F",
"$ c #FFA20D",
"% c #FFA90C",
"& c #FEA513",
"* c #FEA916",
"= c #FFA61B",
"- c #FDAD19",
"; c #FFB012",
": c #FDB21B",
"> c #FCB91F",
", c #FF9B21",
"< c #FEB322",
"1 c #FCBB22",
"2 c #FFBA2A",
"3 c #FFB632",
"4 c #FEB839",
"5 c #FDC126",
"6 c #FEC42C",
"7 c #FDC92F",
"8 c #FDCC32",
"9 c #FECE39",
"0 c #FDD136",
"q c #FED439",
"w c #FED93D",
"e c #FFBA42",
"r c #FFC449",
"t c #FEC84B",
"y c #FEDD41",
"u c #FECA56",
"i c #FFCF5B",
"p c #FED456",
"a c #FFD45D",
"s c #FEE246",
"d c #FEE549",
"f c #FFEA4E",
"g c #FFEE51",
"h c #FEE65F",
"j c #FFE95A",
"k c #FFF053",
"l c #FFCE65",
"z c #FED862",
"x c #FFD96C",
"c c #FEDB71",
"v c #FEDF7D",
"b c #FEE362",
"n c #FFEC69",
"m c #FFF263",
"M c #FFF16E",
"N c #FFE47D",
"B c #FFF373",
"V c #FEDE81",
"C c #FEE184",
"Z c #FFEC85",
"A c #FEE588",
"S c #FFEC8D",
"D c #FFF485",
"F c #FFEE91",
"G c #FFF595",
"H c #FFF598",
/* pixels */
"   O@&&*9nBBBBD   ",
"  rzxxi3=rAHHHHH  ",
" NSHHGGSr&aGGGGHN ",
" GSAAAAFZ3<jmmkmj6",
"GACCVCCVbq&ykkkkg6",
"GCCVVVvp0w=ykkkkk6",
"SVCAACp88q*ykkkkf6",
"FCSGGMd08q-ykkkkk5",
"SSGvpygd9q=wkkkkg6",
"FFl,O&6d0q-wffffd5",
"Fv,.$%;qqq*500009<",
"SpXo$%$8qq*287877:",
"h9o-5-o6qq*277887:",
"s9=7wq+2qq*280888:",
"s8<70w@2qq*tzzzzz3",
"s9<78q@2qq-lCCCCVe",
"y9<789@2q9-ucxNxx4",
"s8<787@2qq=600708<",
"s9<777+2qq*188878:",
"s9<777+2qq*178777-",
"s8<777O2qq*578878-",
"s9-777+2qq&8wwwww<",
"s9-786O2qq=8syywy1",
"s9=786+2qq-8yyysw1",
"s9-586@2qq*8wwwww<",
"s8*586+2qq*200808<",
"s9&176+2qq*577778:",
"s9@-11o2q0*577077:",
"s9XO*$O7qq*277777:",
"s9Xo$%$8q0*177776:",
"sy=XO$:yqq&>5>151*",
"ssy<&>wf0q&>>>>>>*",
"yqfkffkw0q&>>>>>>*",
"s8qsdsw80q&:>>1>>*",
"s07788780w&:1>>>>*",
"fw077877w0&:>>>11*",
" fyqqqqsd>$:::::;&",
" sfgkfgf6$%-:;::- ",
"  69qq8<O&-;-:--  ",
"   $$&OO&--:;--   "
};
