/* XPM */
static char *image_9[] = {
/* columns rows colors chars-per-pixel */
"10 40 84 1 ",
"  c None",
". c #FF9C0C",
"X c #FF9D0C",
"o c #FF9D0D",
"O c #FF9E0D",
"+ c #FF9E0E",
"@ c #FF9F0E",
"# c #FF9E0F",
"$ c #FF9F0F",
"% c #FF9E10",
"& c #FF9E11",
"* c #FF9F12",
"= c #FFA012",
"- c #FFA315",
"; c #FCA914",
": c #FCAA14",
"> c #FCAA15",
", c #FDAB16",
"< c #FBAF18",
"1 c #FBB21A",
"2 c #FBB31B",
"3 c #FDB019",
"4 c #FDB01A",
"5 c #FDB21B",
"6 c #FCBA20",
"7 c #FDBB23",
"8 c #FCBC22",
"9 c #FCBD23",
"0 c #FEBC24",
"q c #FEBC25",
"w c #FEBD25",
"e c #FEBD26",
"r c #FEBE26",
"t c #FEBE29",
"y c #FEC028",
"u c #FEC52D",
"i c #FEC72F",
"p c #FDC92E",
"a c #FEC931",
"s c #FDCB30",
"d c #FDCB31",
"f c #FDCC31",
"g c #FDCC32",
"h c #FDCE32",
"j c #FDCE33",
"k c #FDCD37",
"l c #FDD035",
"z c #FDD135",
"x c #FFD239",
"c c #FFD63C",
"v c #FFD63D",
"b c #FED83C",
"n c #FEDA3F",
"m c #FEDB3F",
"M c #FEC547",
"N c #FFD747",
"B c #FEDD41",
"V c #FEDE42",
"C c #FEC851",
"Z c #FECB5F",
"A c #FFDC57",
"S c #FFEB4E",
"D c #FFEC4F",
"F c #FFF052",
"G c #FFF053",
"H c #FFF153",
"J c #FFF154",
"K c #FFF254",
"L c #FED862",
"P c #FED963",
"I c #FFDA69",
"U c #FFDA6C",
"Y c #FEDC71",
"T c #FEDC72",
"R c #FFF162",
"E c #FFF363",
"W c #FFF372",
"Q c #FFF373",
"! c #FEE085",
"~ c #FEE287",
"^ c #FFF593",
"/ c #FFF795",
"( c #FFF697",
") c #FFF799",
/* pixels */
"-AQWWWWQA ",
"=U)(((()U=",
"*I/^^^^/I*",
"$NERRRREN$",
"@cHFFFFHc@",
"@vJGGGGJv@",
"@vJGGGGJv@",
"@vJGGGGJv@",
"@vKGGGGKv@",
"+xDSSSSDx+",
"OyzllllzyO",
"O0ssssss0O",
"OqssssssqO",
"OegddddgeO",
"#MPLLLLPM#",
"&Z~!!!!~Z&",
"%CTYYYYTC%",
"OtkkkkkktO",
"O0ssssss0O",
"OqssssssqO",
"OwffffffwO",
"+ubbbbbbu+",
"+aVBBBBVa+",
"+aVBBBBVa+",
"+imnnnnmi+",
"OrjhhhhjrO",
"OqssssssqO",
"OqssssssqO",
"OqfssssfqO",
"o7pppppp7o",
"X59888895X",
"X36666663X",
"X46666664X",
"X46666664X",
"X46666664X",
"X36666663X",
".,211112,.",
".;<<<<<<;.",
".;<<<<<<;.",
" ><<<<<<:X"
};
