/* XPM */
static char *image_15[] = {
/* columns rows colors chars-per-pixel */
"31 40 78 1 ",
"  c None",
". c #FF960B",
"X c #FF9C0C",
"o c #FF9F1C",
"O c #FFA30C",
"+ c #FFAA0D",
"@ c #FFA211",
"# c #FEAB16",
"$ c #FFA61B",
"% c #FFAD1B",
"& c #FDB017",
"* c #FDB31C",
"= c #FCB91F",
"- c #FFAE24",
"; c #FFAD2A",
": c #FFB622",
"> c #FEBB24",
", c #FFB22B",
"< c #FFBD2B",
"1 c #FFB533",
"2 c #FFBA33",
"3 c #FCC227",
"4 c #FEC32C",
"5 c #FDCA2F",
"6 c #FFC731",
"7 c #FDCC31",
"8 c #FFC739",
"9 c #FFCB3A",
"0 c #FDD236",
"q c #FED43B",
"w c #FEDA3E",
"e c #FFBE44",
"r c #FFBB48",
"t c #FFC742",
"y c #FDCF40",
"u c #FFC74C",
"i c #FED242",
"p c #FEDD43",
"a c #FFD14B",
"s c #FFDC4D",
"d c #FFC751",
"f c #FFCA54",
"g c #FFCC5E",
"h c #FED455",
"j c #FFDE50",
"k c #FED55D",
"l c #FED85A",
"z c #FEE246",
"x c #FFE449",
"c c #FFEB4E",
"v c #FFE656",
"b c #FFED52",
"n c #FFEB5C",
"m c #FFF056",
"M c #FFF25C",
"N c #FFD564",
"B c #FED769",
"V c #FEDA6C",
"C c #FFDD73",
"Z c #FEDE7D",
"A c #FFE765",
"S c #FFEE61",
"D c #FFE46C",
"F c #FFE96C",
"G c #FFF463",
"H c #FFF867",
"J c #FFF669",
"K c #FFFA6B",
"L c #FEE577",
"P c #FFE47A",
"I c #FFEC7B",
"U c #FEE184",
"Y c #FFEB84",
"T c #FEE689",
"R c #FFED8E",
"E c #FFF28C",
"W c #FFEE90",
"Q c #FFF294",
/* pixels */
"     XX@@@oO@X@X@oXOOO@:8D     ",
"    @:9sxsssjjjsjpqqwq7:%1V    ",
"   &iMKKKKKKKKKJGbbbbbbcq*-BE  ",
"  :sGGMnmmmmbMbcqqqq00wzbs:-j  ",
" %zGMccmccccccz775555577qxp%<c ",
"O9Gmcccccbcbcz057755055770ba#pm",
"*vMbcbccbbbmcwqq00q0705759DY;5m",
"2GmcbccmMHKGmcbbbbmcxw759lURt<c",
"8GbccbmHJnsiqqqqqqqwzbzqlUUQd:c",
"8GbcbbGS8$@OOO@+@@@@#6bFUUUWf:x",
"8GbcbMG,XX++O++++++++@tRTUUWf%7",
"8GbbbGaXO+OOOOOOOOO+++-CRUURf#5",
"8GbcmG,.+#**:<3<<:@XO++fWUUWf#5",
"8Mbcmn-X&47750wppp0$.++uWUUWf#6",
"8Gbccc$X<775570wzpz<.O+uWUUWd-k",
"8Gbzwz$X37575550wzp7.O+dWUUI81Z",
"9Gx7qx$@355557750wz5XO+uWUVv6,B",
"8nq70x$X3505057750p7.X+uRVqx6#8",
"6x070z$X3055557577q7.O+uLi7x6#5",
"6x77qz$O350555757775XX+8v77x6#5",
"<x979z$X>5557577777<.O+5x77s5#5",
"4z07qz$X*5575775777>.X+4x77c6%q",
"4x77qz$X&3575775575:.O+4x07z6%q",
"4x77qz#X&=357577757>.O+3x57z7*w",
"4x070x$X&==35575777>.O+4x50z5%q",
"4z770z$X**==3575577:.O+3x05x5#7",
"4z959x%X#==*=355775%.O+5x70z6#5",
"6z05qA;.+&&**=3353*.XO+5x55x5#5",
"4z77lRr.O+OOXO@@$+.O++#7x05z6#5",
"4zqhZQC$X++O+O+OOOO+++%zw57x6#4",
"4xlZUTWgo.OOO+++O+O+O#qc057x5#:",
"6FUUUUWWCe,-%%%%%*&&3pcw078z5@=",
"1TTUUUUTQQIvcccxcxccccw0550c<#=",
";PWUUUUUTPvxczzxxcxzw05555wx%#=",
"@fQTUUUUVi7777050577557570c7O&:",
" ;CQTUUVi555555555555550qcz&#= ",
"  1PQWPsq00q00000q000qwzcz>X%  ",
"   ,BISbcbbbmbbbbmbbbbccq*X#&  ",
"    $:7qqqiwqqwwiqwiqq8:$X#    ",
"     .XX@@X@@@XOXO@X@OXO+#     "
};
