/* XPM */
static char *image_13[] = {
/* columns rows colors chars-per-pixel */
"24 40 73 1 ",
"  c None",
". c #FF8A06",
"X c #FF8E0B",
"o c #FF9107",
"O c #FF920B",
"+ c #FF9C0C",
"@ c #FF9312",
"# c #FF9E11",
"$ c #FFA20D",
"% c #FFA90C",
"& c #FFA412",
"* c #FEAA16",
"= c #FFA61A",
"- c #FEAD1A",
"; c #FFB116",
": c #FDB31B",
"> c #FDB91D",
", c #FFAD22",
"< c #FEB424",
"1 c #FDBB23",
"2 c #FFB52B",
"3 c #FEBC29",
"4 c #FFC020",
"5 c #FEC32C",
"6 c #FDC92E",
"7 c #FFC733",
"8 c #FDCC31",
"9 c #FECD38",
"0 c #FED136",
"q c #FED53A",
"w c #FED93D",
"e c #FFBF43",
"r c #FFCA44",
"t c #FFC449",
"y c #FDD346",
"u c #FFDE43",
"i c #FFD24C",
"p c #FFD94B",
"a c #FFCA53",
"s c #FFCE59",
"d c #FED454",
"f c #FFDD54",
"g c #FEDA5C",
"h c #FEE145",
"j c #FFE64A",
"k c #FFE94D",
"l c #FFEE51",
"z c #FFE359",
"x c #FFEF59",
"c c #FFF053",
"v c #FFF15F",
"b c #FFCE63",
"n c #FFCF68",
"m c #FED862",
"M c #FFD668",
"N c #FFDA6D",
"B c #FEDD71",
"V c #FEDE7C",
"C c #FEE164",
"Z c #FFF263",
"A c #FEE274",
"S c #FFE67E",
"D c #FFF272",
"F c #FFF279",
"G c #FEE284",
"H c #FFE983",
"J c #FEE78A",
"K c #FFED8E",
"L c #FFF382",
"P c #FFF28F",
"I c #FEED90",
"U c #FFF495",
"Y c #FFF598",
/* pixels */
"    ++##&+&&+&&3fDFL    ",
"   :5qqqwqqqqdt,=sPYY   ",
"  7hcklllllxDUUSe=aUUU  ",
" 8kjuqqq00qgGJKUKt*pZZZ ",
"6kh0668688dVGGGGUH23klcc",
"uk0868868dVGGGGVGUs-hccc",
"ku86880qgGGGGGGGGKN=uccc",
"kw680hlDUYYYUJGGGGz-qccc",
"lq60hlfMBBNBSUUGBfh=wccc",
"lw6hj2###&&#:aKSyuh*qklk",
"kq8h3X+$%%%%%%pz8yh*3080",
"cw0d@.$%$$$+$$>w0qu*1888",
"kwgbX+:<111*o+*08wh*1888",
"cCGnX-68qhh0&.&q0qu*3888",
"FHJn@3888qhh2.#80wu*tmmm",
"YJJn@38860wh3.+q8wh=bGGG",
"YJGn@188880u3.#08wh*aBBB",
"YJGn@386688w3.#00wu*5999",
"YJGn@388868q3.#98qu*4868",
"YJGM@3888888<.&98uu=1886",
"YJJn@1866688,.&80wu*3806",
"YJGbO:688886-.+q8wh*6wqq",
"YJBrO-686886,.#90wh*8uuw",
"YAy8O*168688-.&q8wu*7uwu",
"Lp88X->56888-.#88wh*6uuw",
"xq97O-:16868-.+q8wh=1888",
"lq87o*>>4888=.&00wu=1868",
"lq08.$:::15>Oo&q8wu-1888",
"lw89oO*%$$&+++;q8wh*1886",
"lw8w#.+%%%$%$%4h8wh=1666",
"lq8h9@O$$$$$%;wh8wh*:111",
"kw8wk9,*-:::1wkq6wu*:>><",
"cw68uklkkkkkkkh88wu*:11>",
"kh880qhhjjkhhq888hu&:>11",
"hj068688880088889k8&:>1>",
"6jh0868868666880jh:%>>>1",
" 8kjuqq0q9000qwkj5$*::: ",
"  7hllllcclllllh3$&-;-  ",
"   :5qqqwqw0w05*$&-;;   ",
"    ++###$&+&+$$*-;-    "
};
