/* XPM */
static char *fe5caa6272c2424da6813a70add4cf2cFifRpGDhiD9Simlc[] = {
/* columns rows colors chars-per-pixel */
"60 60 202 2 ",
"   c #030302",
".  c #060B08",
"X  c #16120E",
"o  c #1C1712",
"O  c #461509",
"+  c #521909",
"@  c #501F13",
"#  c #6E1316",
"$  c #4A2219",
"%  c #562417",
"&  c #53251A",
"*  c #5A271A",
"=  c #55291F",
"-  c #642D1C",
";  c #69311F",
":  c #572B21",
">  c #5B2C21",
",  c #4C3529",
"<  c #5B3528",
"1  c #643226",
"2  c #633429",
"3  c #60392A",
"4  c #69392C",
"5  c #623E34",
"6  c #544435",
"7  c #694837",
"8  c #724E3D",
"9  c #133F69",
"0  c #153C76",
"q  c #343263",
"w  c #692D4D",
"e  c #752D4D",
"r  c #6E3155",
"t  c #433C67",
"y  c #15426B",
"u  c #1F477D",
"i  c #2E4C6E",
"p  c #254578",
"a  c #386A69",
"s  c #2A6577",
"d  c #71594F",
"f  c #577A58",
"g  c #7E6D69",
"h  c #851B1B",
"j  c #991C2E",
"k  c #BA1A22",
"l  c #892322",
"z  c #912935",
"x  c #BE272E",
"c  c #CE0D15",
"v  c #D9121B",
"b  c #EB0007",
"n  c #F90005",
"m  c #E50B14",
"M  c #EA0C15",
"N  c #F70C17",
"B  c #E4131C",
"V  c #EC151D",
"C  c #F2121D",
"Z  c #FD161A",
"A  c #CC1F28",
"S  c #D31E25",
"D  c #DE1B24",
"F  c #E41C25",
"G  c #E81A26",
"H  c #EC1D26",
"J  c #F71923",
"K  c #F31B24",
"L  c #FA1B25",
"P  c #C8252C",
"I  c #D3262E",
"U  c #CE2C32",
"Y  c #D22E36",
"T  c #C43038",
"R  c #EF212A",
"E  c #F12129",
"W  c #8A2E42",
"Q  c #C63C43",
"!  c #8C5555",
"~  c #B94B49",
"^  c #BA5552",
"/  c #83614B",
"(  c #8C6A53",
")  c #9E785D",
"_  c #B96D54",
"`  c #A37B5F",
"'  c #B65E61",
"]  c #82716D",
"[  c #876E73",
"{  c #BC6568",
"}  c #C55B4C",
"|  c #CA5055",
" . c #C5696C",
".. c #C17E64",
"X. c #CC7E64",
"o. c #C46E71",
"O. c #C6797C",
"+. c #768D45",
"@. c #B2B417",
"#. c #939B23",
"$. c #95A637",
"%. c #DAD30B",
"&. c #E4E30B",
"*. c yellow",
"=. c #9D8676",
"-. c #B58B6B",
";. c #B18C72",
":. c #CE8066",
">. c #CB9A75",
",. c #C5A37C",
"<. c #D4A37C",
"1. c #DAA57B",
"2. c #DDA87C",
"3. c #E1AA7F",
"4. c #174D86",
"5. c #01499C",
"6. c #09579A",
"7. c #135294",
"8. c #22528B",
"9. c #2C6392",
"0. c #396895",
"q. c #004FAC",
"w. c #0053A3",
"e. c #065AA5",
"r. c #035DAD",
"t. c #025DB3",
"y. c #0056BA",
"u. c #005CBA",
"i. c #0462AE",
"p. c #0261B2",
"a. c #0065BB",
"s. c #0169BF",
"d. c #2F70AA",
"f. c #43729C",
"g. c #776C81",
"h. c #4676A6",
"j. c #016AC5",
"k. c #74889F",
"l. c #688CAB",
"z. c #968A85",
"x. c #98908B",
"c. c #9C9D9C",
"v. c #A09795",
"b. c #BAA38E",
"n. c #BEAB9B",
"m. c #889EAF",
"M. c #AEA9A7",
"N. c #B8A9AA",
"B. c #BEB1A8",
"V. c #A2B0BD",
"C. c #B7B2B1",
"Z. c #D19091",
"A. c #D39E9F",
"S. c #C6A88D",
"D. c #DDAA81",
"F. c #CDAD92",
"G. c #D8B294",
"H. c #E3AC82",
"J. c #E9B386",
"K. c #ECB58A",
"L. c #F4B688",
"P. c #F5BA8D",
"I. c #FBBC8E",
"U. c #E7BE91",
"Y. c #FCBF90",
"T. c #CE9EA1",
"R. c #CBA8A9",
"E. c #C2BCB9",
"W. c #D3B4B6",
"Q. c #FFC38E",
"!. c #F7C693",
"~. c #FFC493",
"^. c #FFC896",
"/. c #FECD9A",
"(. c #FDD09B",
"). c #C7C2BC",
"_. c #FFD8A3",
"`. c #9DBBCD",
"'. c #BABBC3",
"]. c #D7BFC0",
"[. c #BAC4CC",
"{. c #C5C5C5",
"}. c #C5C7CE",
"|. c #CDCCCC",
" X c #D5CAC8",
".X c #CED2CC",
"XX c #D6D0CA",
"oX c #D3D2D2",
"OX c #DCD6D4",
"+X c #DBDCDB",
"@X c #E2D8D9",
"#X c #E0E0DF",
"$X c #DDE2E2",
"%X c #E3E2E2",
"&X c #E5EAEC",
"*X c #EBEEEE",
"=X c #F0EBE6",
"-X c #EBF0EF",
";X c #ECF1F0",
":X c #F2F2F2",
">X c #F6FDFF",
",X c #FFFFFF",
/* pixels */
",X,X,X,X,X,X,X,X,X,X,X,X,X,X,X,X,X,X,X,X,X,X,X,X,X,X,X,X,X,X,X,X,X,X,X,X,X,X,X,X,X,X,X,X,X,X,X,X,X,X,X,X,X,X,X,X,X,X,X,X",
",X,X,X,X,X,X,X,X,X,X,X,X,X,X,X,X,X,X,X,X,X,X,X,X,X,X,X,X,X,X,X,X,X,X,X,X,X,X,X,X,X,X,X,X,X,X,X,X,X,X,X,X,X,X,X,X,X,X,X,X",
",X,X,X,X,X,X,X,X,X,X,X,X,X,X,X,X,X,X,X,X,X,X,X,X,X,X,X,X,X,X,X,X,X,X,X,X,X,X,X,X,X,X,X,X,X,X,X,X,X,X,X,X,X,X,X,X,X,X,X,X",
",X,X,X,X,X,X,X,X,X,X,X,X,X,X,X,X,X,X,X,X,X,X,X,X,X,X,X,X,X,X,X,X,X,X,X,X,X,X,X,X,X,X,X,X,X,X,X,X,X,X,X,X,X,X,X,X,X,X,X,X",
",X,X,X,X,X,X,X,X,X,X,X,X,X,X,X,X,X,X,X,X,X,X,X,X,X,X,X,X,X,X,X,X,X,X,X,X,X,X,X,X,X,X,X,X,X,X,X,X,X,X,X,X,X,X,X,X,X,X,X,X",
",X,X,X,X,X,X,X,X,X,X,X,X,X,X,X,X,X,X,X,X,X,X,X,X,X,X,X,X,X,X,X,X,X,X,X,X,X,X,X,X,X,X,X,X,X,X,X,X,X,X,X,X,X,X,X,X,X,X,X,X",
",X,X,X,X,X,X,X,X,X,X,X,X,X,X,X,X,X,X,X,X,X,X,X,X,X,X,X,X,X,X,X,X,X,X,X,X,X,X,X,X,X,X,X,X,X,X,X,X,X,X,X,X,X,X,X,X,X,X,X,X",
",X,X,X,X,X,X,X,X,X,X,X,X,X,X,X,X,X,X,X,X,X,X,X,X,X,X,X,X,X,X,X,X,X,X,X,X,X,X,X,X,X,X,X,X,X,X,X,X,X,X,X,X,X,X,X,X,X,X,X,X",
",X,X,X,X,X,X,X,X,X,X,X,X,X,X,X,X,X,X,X,X,X,X,X,X,X,X,X,X:X,X,X:X,X,X,X,X,X,X,X,X,X,X,X,X,X,X,X,X,X,X,X,X,X,X,X,X,X,X,X,X",
",X,X,X,X,X,X,X,X,X,X,X,X,X,X,X,X,X,X,X,X,X,X,X,X,X,X,X,X,X,X,X,X,X,X,X,X,X,X,X,X,X,X,X,X,X,X,X,X,X,X,X,X,X,X,X,X,X,X,X,X",
",X,X,X,X,X,X,X,X,X,X,X,X,X,X,X,X,X,X,X,X,X,X@XZ.A.A.A.A.A.A.A.A.A.A.R.:X,X,X,X,X,X,X,X,X,X,X,X,X,X,X,X,X,X,X,X,X,X,X,X,X",
",X,X,X,X,X,X,X,X,X,X,X,X,X,X,X,X,X,X,X,X,X,XR.c M m m m m m m m m M c *X,X,X,X,X,X,X,X,X,X,X,X,X,X,X,X,X,X,X,X,X,X,X,X,X",
",X,X,X,X,X,X,X,X,X,X,X,X,X,X,X,X,X,X,X,X*X;XR.B E R R R E E E E E J U +X;X*X*X-X*X-X>X,X,X,X,X,X,X,X,X,X,X,X,X,X,X,X,X,X",
",X,X,X,X,X,X,X,X,X,X,X,X,X,X,X,X,X,X,X,X' I P G H H H H H H H H R J F U U U U P Y P ].,X:X,X,X,X,X,X,X,X,X,X,X,X,X,X,X,X",
",X,X,X,X,X,X,X,X,X,X,X,X,X,X,X,X,X,X,X,X| N L L L L L J C J C V V E L C C N N N N b W.,X,X,X,X,X,X,X,X,X,X,X,X,X,X,X,X,X",
",X,X,X,X,X,X,X,X,X,X,X,X,X,X,X,X,X,X>X>X! h l l l l h z } } } } ~ # # ^ } ^ o.o.o.{ OX,X,X,X,X,X,X,X,X,X,X,X,X,X,X,X,X,X",
",X,X,X,X,X,X,X,X,X,X,X,X,X,X,X,X,X,X,X,Xd $ < < < < & 7 (.!.!./.,.  . U.P..X,X,X,X,X,X,X,X,X,X,X,X,X,X,X,X,X,X,X,X,X,X,X",
",X,X,X,X,X,X,X,X,X,X,X,X,X,X,X,X,X:XoXOXd : < 1 1 < * d ~.I.P.~.>.  X J.P.F.OXOXOXOX:X,X,X,X,X,X,X,X,X,X,X,X,X,X,X,X,X,X",
",X,X,X,X,X,X,X,X,X,X,X,X,X,X,X,X,X.X$ $ ( U.) : & ` H.H.I.I.I.~.>.  X J.I.2.1.1.1.>.XX,X,X,X,X,X,X,X,X,X,X,X,X,X,X,X,X,X",
",X,X,X,X,X,X,X,X,X,X,X,X,X,X,X>X,XoX: > ` _.-.& : -._.~.I.I.I.~.>.  . P./.~.~.~.Q.L.oX,X,X,X,X,X,X,X,X,X,X,X,X,X,X,X,X,X",
",X,X,X,X,X,X,X,X,X,X,X,X,X,X,X,X,XoX= > ` /.-.$ 1 7 8 ( ~.I.P.~.1., 6 ;.-.J.I.P.I.L.b.S.B.>X,X,X,X,X,X,X,X,X,X,X,X,X,X,X",
",X,X,X,X,X,X,X,X,X,X,X,X,X,X,X,X,XoX= = ` _.-.$ 1 - @ 7 ^.I.I.I.Q././.X   >.^.~.Q.~.Q.Q.F.>X,X,X,X,X,X,X,X,X,X,X,X,X,X,X",
",X,X,X,X,X,X,X,X,X,X,X,X,X,X,X>X,XoX& > / ,.( , 3 < < d ~.I.I.I.P.3.<.o   -.J.D.D.H.D.1.b.>X,X,X,X,X,X,X,X,X,X,X,X,X,X,X",
",X,X,X,X,X,X,X,X,X,X,X,X,X,X,X,X,XoX: 4 2 : 5 J.K.P.K.P.I.I.I.~.>..           . .   c.oX+X,X,X,X,X,X,X,X,X,X,X,X,X,X,X,X",
",X,X,X,X,X,X,X,X,X,X,X,X,X,X,X,X,X|.O % % % 2 Q.~.Y.Q.I.I.I.I.~.>.                  C.,X,X,X,X,X,X,X,X,X,X,X,X,X,X,X,X,X",
",X,X,X,X,X,X,X,X,X,X,X,X,X,X,X,X,X*XM.M.M.N.z.3.Y.P.P.I.I.I.I.I.K.<.<.<.<.<.D.;.oX+X:X,X,X,X,X,X,X,X,X,X,X,X,X,X,X,X,X,X",
",X,X,X,X,X,X,X,X,X,X,X,X,X,X,X,X,X,X,X,X,X,X).L./.~.Q.Q.^.^.~.~.^.^.^.Q.Q.Q.Q.G.>X,X,X,X,X,X,X,X,X,X,X,X,X,X,X,X,X,X,X,X",
",X,X,X,X,X,X,X,X,X,X,X,X,X,X,X,X,X,X>X,X:X>XE._ X.=.x.=.X.:.X.:.X.X...S.F.F.F.n.:X,X,X,X,X,X,X,X,X,X,X,X,X,X,X,X,X,X,X,X",
",X,X,X,X,X,X,X,X,X,X,X,X,X,X,X,X,X,X,X,X,X,XW.c M 0 j.q M G B B G C A &X,X>X,X,X,X,X,X,X,X,X,X,X,X,X,X,X,X,X,X,X,X,X,X,X",
",X,X,X,X,X,X,X,X,X,X,X,X,X,X,X,X,X>X*X*X*X-XN.m E p j.t Z E H K F B P +X;X*X*X*X;X-X>X,X,X,X,X,X,X,X,X,X,X,X,X,X,X,X,X,X",
",X,X,X,X,X,X,X,X,X,X,X,X,X,X,X,X,X@Xx Y Y Y I H V p j.t J G G J w 7.p P Y U Y Y Y P W.,X,X,X,X,X,X,X,X,X,X,X,X,X,X,X,X,X",
",X,X,X,X,X,X,X,X,X,X,X,X,X,X,X,X,X@Xv Z K V K R V p s.t Z Z Z Z w j.7.B K K K J J m  X,X,X,X,X,X,X,X,X,X,X,X,X,X,X,X,X,X",
",X,X,X,X,X,X,X,X,X,X,X,X,X,X,XR.O.{ F H H H H H G p a.8.e r r e i a.4.D H H H H H G { O.T.,X,X,X,X,X,X,X,X,X,X,X,X,X,X,X",
",X,X,X,X,X,X,X,X,X,X,X,X,X,X,X .b C K K K H K L C 4.a.t.a.a.a.a.t.u.7.G L K H K K K C n | >X,X,X,X,X,X,X,X,X,X,X,X,X,X,X",
",X,X,X,X,X,X,X,X,X,X,X,X,X,X,Xo.v I S S D J F A A p 6.e.r.r.i.r.6.e.u k A D H F I S I S { ,X,X,X,X,X,X,X,X,X,X,X,X,X,X,X",
",X,X,X,X,X,X,X,X,X,X,X,X,X,X,X{.#X%X#X+X^ J z 6.5.#.%.$.u.i.i.y.+.&.@.5.e.W Z Q +X$X#X#XC.:X,X,X,X,X,X,X,X,X,X,X,X,X,X,X",
",X,X,X,X,X,X,X,X,X,X,X,X,X,X,XOX,X,X,X,X| n j p.q.@.*.$.y.i.p.y.+.*.%.e.s.z n T >X,X,X,XoX>X,X,X,X,X,X,X,X,X,X,X,X,X,X,X",
",X,X,X,X,X,X,X,X,X,X,X,X,X,X,XoX>X,X,X,XR.Z.[ e.r.a f s t.i.r.t.8.a a i.r.g.Z.T.:X,X,X,XoX>X,X,X,X,X,X,X,X,X,X,X,X,X,X,X",
",X,X,X,X,X,X,X,X,X,X,X,X,X,X,XoX,X,X,X,X>X,X[.5.t.u.y.u.p.i.t.i.p.u.u.p.w.`.,X,X,X,X,X,XXX:X,X,X,X,X,X,X,X,X,X,X,X,X,X,X",
",X,X,X,X,X,X,X,X,X,X,X,X,X,X,XoX,X,X,X,X}.'.k.w.p.p.i.i.t.i.i.p.i.i.i.p.r.l.'.'.,X,X,X,X|.>X,X,X,X,X,X,X,X,X,X,X,X,X,X,X",
",X,X,X,X,X,X,X,X,X,X,X,X,X,X,XoX,X,X,X,X0.5.e.p.p.p.p.p.p.p.p.p.p.p.p.i.p.e.5.7.,X,X,X,X.X>X,X,X,X,X,X,X,X,X,X,X,X,X,X,X",
",X,X,X,X,X,X,X,X,X,X,X,X,X,X,X{.*X:X*X:Xf.t.p.i.r.r.p.r.w.w.w.w.r.p.r.p.p.p.a.d.=X*X*X:X{.>X,X,X,X,X,X,X,X,X,X,X,X,X,X,X",
",X,X,X,X,X,X,X,X,X,X,X,X,X,X,X+X{.|.{.{.0.t.r.t.i.i.t.9.V.V.V.V.f.r.p.r.i.r.r.9.).{.|.{.|.,X,X,X,X,X,X,X,X,X,X,X,X,X,X,X",
",X,X,X,X,X,X,X,X,X,X,X,X,X,X,X,X,X,X,X,Xh.y.a.a.a.t.q.f.,X,X,X,Xl.q.p.a.a.a.u.d.,X,X,X,X,X,X,X,X,X,X,X,X,X,X,X,X,X,X,X,X",
",X,X,X,X,X,X,X,X,X,X,X,X,X,X,X>X>X%Xx.v.i 9 y y y 9.0.k.,X>X:X,Xm.0.0.y y y y i x.x.OX,X,X,X,X,X,X,X,X,X,X,X,X,X,X,X,X,X",
",X,X,X,X,X,X,X,X,X,X,X,X,X,X,X,X,XoXO % - - - ; + B.,X,X,X,X,X,X,X,XXX% ; - - - * O E.,X,X,X,X,X,X,X,X,X,X,X,X,X,X,X,X,X",
",X,X,X,X,X,X,X,X,X,X,X,X,X,X,X*X&X{.> 4 1 1 < 4 & C.,X>X,X,X,X,X,X,X.X= 2 2 2 2 4 * C.&X*X,X,X,X,X,X,X,X,X,X,X,X,X,X,X,X",
",X,X,X,X,X,X,X,X,X,X,X,X,X>X,X=.< 5 1 4 1 1 2 4 & B.,X>X,X,X,X,X,X,XXX= 4 2 2 2 2 2 5 > ] ,X,X,X,X,X,X,X,X,X,X,X,X,X,X,X",
",X,X,X,X,X,X,X,X,X,X,X,X,X,X,X] O % % % % % % * O M.,X>X,X,X,X,X>X,X|.+ * % % % % % % + d ,X,X,X,X,X,X,X,X,X,X,X,X,X,X,X",
",X,X,X,X,X,X,X,X,X,X,X,X,X,X,XM.] ] ] ] ] ] ] ] g |.,X,X,X,X,X,X,X,X+Xg ] ] ] ] ] ] ] ] v.,X,X,X,X,X,X,X,X,X,X,X,X,X,X,X",
",X,X,X,X,X,X,X,X,X,X,X,X,X,X,X,X,X,X,X,X,X,X,X,X,X,X,X,X,X,X,X,X,X,X,X,X,X,X,X,X,X,X,X,X,X,X,X,X,X,X,X,X,X,X,X,X,X,X,X,X",
",X,X,X,X,X,X,X,X,X,X,X,X,X,X,X,X,X:X,X,X>X,X,X,X,X,X,X,X,X,X,X,X,X,X,X,X,X,X>X,X,X>X,X,X,X,X,X,X,X,X,X,X,X,X,X,X,X,X,X,X",
",X,X,X,X,X,X,X,X,X,X,X,X,X,X,X,X,X,X,X,X,X,X,X,X,X,X,X,X,X,X,X,X,X,X,X,X,X,X,X,X,X,X,X,X,X,X,X,X,X,X,X,X,X,X,X,X,X,X,X,X",
",X,X,X,X,X,X,X,X,X,X,X,X,X,X,X,X,X,X,X,X,X,X,X,X,X,X,X,X,X,X,X,X,X,X,X,X,X,X,X,X,X,X,X,X,X,X,X,X,X,X,X,X,X,X,X,X,X,X,X,X",
",X,X,X,X,X,X,X,X,X,X,X,X,X,X,X,X,X,X,X,X,X,X,X,X,X,X,X,X,X,X,X,X,X,X,X,X,X,X,X,X,X,X,X,X,X,X,X,X,X,X,X,X,X,X,X,X,X,X,X,X",
",X,X,X,X,X,X,X,X,X,X,X,X,X,X,X,X,X,X,X,X,X,X,X,X,X,X,X,X,X,X,X,X,X,X,X,X,X,X,X,X,X,X,X,X,X,X,X,X,X,X,X,X,X,X,X,X,X,X,X,X",
",X,X,X,X,X,X,X,X,X,X,X,X,X,X,X,X,X,X,X,X,X,X,X,X,X,X,X,X,X,X,X,X,X,X,X,X,X,X,X,X,X,X,X,X,X,X,X,X,X,X,X,X,X,X,X,X,X,X,X,X",
",X,X,X,X,X,X,X,X,X,X,X,X,X,X,X,X,X,X,X,X,X,X,X,X,X,X,X,X,X,X,X,X,X,X,X,X,X,X,X,X,X,X,X,X,X,X,X,X,X,X,X,X,X,X,X,X,X,X,X,X",
",X,X,X,X,X,X,X,X,X,X,X,X,X,X,X,X,X,X,X,X,X,X,X,X,X,X,X,X,X,X,X,X,X,X,X,X,X,X,X,X,X,X,X,X,X,X,X,X,X,X,X,X,X,X,X,X,X,X,X,X",
",X,X,X,X,X,X,X,X,X,X,X,X,X,X,X,X,X,X,X,X,X,X,X,X,X,X,X,X,X,X,X,X,X,X,X,X,X,X,X,X,X,X,X,X,X,X,X,X,X,X,X,X,X,X,X,X,X,X,X,X"
};
